# xmcd CD database file generated by Grip 3.0.7
# 
# Track frame offsets:
#       150
#       16545
#       35660
#       49992
#       65717
#       78527
#       96150
#       110270
#       126587
#       142885
#       157287
# 
# Disc length: 2356 seconds
# 
# Revision: 2
# Processed by: cddbd v1.4PL0 Copyright (c) Steve Scherf et al.
# Submitted via: Grip 3.0.7
# 
DISCID=9909320b
DTITLE=Joe Diffie - Twice Upon A Time
DYEAR=1997
DGENRE=Country
TTITLE0=This Is Your Brain
TTITLE1=Twice Upon A Time
TTITLE2=Show Me A Woman
TTITLE3=The Promised Land
TTITLE4=Houston, We Have A Problem
TTITLE5=Somethin' Like This
TTITLE6=I Got A Feelin'
TTITLE7=Zero
TTITLE8=It's Hard To Be Me
TTITLE9=John Doe
TTITLE10=One More Breath
EXTD=
EXTT0=
EXTT1=
EXTT2=
EXTT3=
EXTT4=
EXTT5=
EXTT6=
EXTT7=
EXTT8=
EXTT9=
EXTT10=
PLAYORDER=
